<?xml version="1.0" standalone="no"?><!DOCTYPE svg PUBLIC "-//W3C//DTD SVG 1.1//EN" "http://www.w3.org/Graphics/SVG/1.1/DTD/svg11.dtd"><svg t="1654918329428" class="icon" viewBox="0 0 1024 1024" version="1.1" xmlns="http://www.w3.org/2000/svg" p-id="2323" xmlns:xlink="http://www.w3.org/1999/xlink" width="200" height="200"><defs><style type="text/css"></style></defs><path d="M1023.98404 512c0 282.749582-229.216418 512-511.984 512C229.234458 1024 0.00004 794.749582 0.00004 512 0.00004 229.234418 229.234458 0 512.00004 0 794.767622 0 1023.98404 229.234418 1023.98404 512z" fill="#5D9CEC" p-id="2324"></path><path d="M998.890432 353.204481c-24.031625-73.688849-65.404978-142.171779-119.718129-198.046905-54.249152-55.781128-121.438103-99.078452-194.280964-125.218044l-21.281668-7.63988-6.3759 21.71766c-2.937954 9.907845-5.155919 17.063733-6.689896 21.375666-18.999703 8.905861-39.311386 16.937735-58.967078 24.749614-62.71502 24.841612-127.544007 50.54521-172.263309 109.482289-19.455696 25.6256-21.705661 52.391181-5.859908 69.828909 8.29587 9.139857 20.375682 13.781785 35.905439 13.781784 10.123842 0 20.687677-1.90597 29.999531-3.577944 6.561897-1.187981 13.343792-2.405962 17.327729-2.405962 0.295995 0 0.561991 0.016 0.827987 0.031999 22.921642 1.639974 65.624975 9.749848 103.874377 19.717692 42.031343 10.937829 64.312995 20.187685 73.812847 25.579601-6.3759 7.593881-23.467633 19.329698-46.345276 19.329698-11.187825 0-22.061655-2.889955-32.375494-8.579866-15.781753-8.703864-55.281136-16.967735-109.718286-26.687583l-5.281917-0.953985c-2.281964-0.405994-4.889924-0.60999-7.953876-0.609991-22.875643 0-76.8288 11.077827-117.218168 53.031172-35.327448 36.671427-52.045187 87.218637-49.687224 150.217652 1.453977 38.733395 14.593772 71.608881 38.015406 95.044515 23.765629 23.813628 56.875111 36.595428 95.734504 37.063421 4.623928 0.032 9.265855 0.032 13.875783 0.032h3.093952c22.453649 0 45.655287 0 62.811019 6.467899 10.985828 4.123936 24.517617 12.249809 31.829502 38.625396 7.561882 27.437571 9.749848 55.499133 11.999813 85.216669 2.123967 27.967563 4.375932 56.905111 11.49982 85.654661 14.123779 56.93911 43.217325 71.156888 65.122983 73.064859 3.123951 0.249996 6.249902 0.375994 9.311854 0.375994 48.751238 0 81.124732-32.813487 107.594319-63.595007 6.311901-7.345885 13.217793-14.439774 20.531679-21.939657 16.125748-16.531742 32.813487-33.623475 44.689302-55.343135 13.717786-24.999609 18.623709-51.249199 23.437634-76.592803 4.49993-24.061624 8.811862-46.783269 20.249683-66.656959 1.561976-2.687958 3.375947-5.74991 5.375916-9.217856 58.095092-99.610444 72.062874-136.483867 59.783066-157.873533-5.531914-9.59385-15.655755-14.781769-27.469571-13.875783-5.623912 0.437993-11.187825 0.65599-16.499742 0.65599-34.999453 0-63.937001-9.62585-79.404759-26.407588-4.375932-4.749926-6.467899-8.843862-7.405884-11.563819 0.531992-0.032 1.123982-0.045999 1.811971-0.045999 10.24984 0 25.999594 4.203934 41.217356 8.28187 18.405712 4.937923 37.467415 10.031843 54.217153 10.031843 27.283574 0 45.033296-14.171779 48.939235-38.98539 3.875939-7.03189 22.061655-24.171622 34.375463-25.781598l25.499602-3.327948-7.967876-24.431618zM164.297473 611.750441c-16.033749-23.313636-34.391463-45.875283-50.875205-68.828924-15.35976-21.405666-75.310823-118.750145-103.094389-133.717911A514.623959 514.623959 0 0 0 0.00004 512c0 124.624053 44.533304 238.812269 118.532148 327.622881 0.061999 0.061999 0.171997 0.093999 0.327995 0.093998 4.48393 0 46.189278-30.999516 49.969219-34.217465 16.421743-13.937782 30.171529-30.967516 36.327432-51.937188 14.359776-48.811237-13.859783-102.562397-40.859361-141.811785z" fill="#A0D468" p-id="2325"></path></svg>